<svg width="486" height="491" viewBox="0 0 486 491" fill="none" xmlns="http://www.w3.org/2000/svg">
<g clip-path="url(#clip0_7_7038)">
<g clip-path="url(#clip1_7_7038)">
<g clip-path="url(#clip2_7_7038)">
<path d="M470.2 318C480 293.9 486.3 268.2 488.3 241.5C486.5 189.7 464 141.2 429.5 101.6V98H426.3C424.9 96.5 423.6 95 422.2 93.6V80.6H419.4H412.8V74H406.4V65.9H392C385.1 60.4 378 55.3 370.7 50.4V49.5H369.3C352.4 38.4 334.3 29.1 315.6 21.7V17.9H305.4C299 15.7 292.6 13.7 286.1 11.9V5.39999H254C251.1 4.99999 248.3 4.59999 245.4 4.29999C243.5 4.59999 241.6 4.99999 239.7 5.39999H231.6V6.99999C228.3 7.69999 225 8.39999 221.8 9.19999H205.7V13.5C203.9 14 202.1 14.6 200.3 15.1H174.4V24.1C170.1 25.8 165.9 27.5 161.8 29.3H159.8V30.2C147 35.8 135 42.1 123.5 49H120.6V50.8C111.8 56.3 103.3 62.2 95.3 68.4H90.4V68.9H88.3V74.1C86.7 75.5 85.1 76.8 83.5 78.2H78.2V83C73 87.9 68 92.9 63.3 98.1H60V101.9C37.4 128.1 21.6 158.8 15 193.2H9.60001V297H14.7C19.4 317.7 28.2 338.4 40.4 358V364.9H44.8C50 372.7 55.6 380.3 61.7 387.6V392.2H63.7V403.8H76.3C77 404.5 77.7 405.2 78.4 405.9V414.9H87.7C88.8 415.9 90 417 91.1 418V425H99.2C141.1 459.9 193.4 483.7 245.7 485.8C299.2 482.7 351 460 393 424.3H405.4V415.4H414.8V403.7C415.1 403.4 415.3 403.2 415.6 402.9H421.1V396.9C422.2 395.6 423.3 394.4 424.4 393.1H429.5V386.9C435.5 379.5 441.1 371.8 446.3 363.8H451.1V356C457.3 345.7 462.9 335.1 467.7 324H470.2V318Z" fill="#F99070"/>
<path d="M478.5 186.3V176.5V166.7V156.9H468.7V147.1V137.2H458.9V127.5V117.7H449.1V107.8H439.3V98H429.5V107.8V117.7H439.3V127.5H449.1V137.2V147.1H458.9V156.9V166.7H468.7V176.5V186.3V196.1H478.5V205.9V215.7V225.5V235.3V245.1V254.9V264.7V274.5V284.3V294.1H468.7V303.9V313.7V323.5H458.9V333.3V343.1H449.1V352.9V362.7H439.3V372.5H429.5V382.4V392.2H439.3V382.4H449.1V372.5H458.9V362.7V352.9H468.7V343.1V333.3H478.5V323.5V313.7V303.9H488.3V294.1V284.3V274.5V264.7V254.9V245.1V235.3V225.5V215.7V205.9V196.1V186.3H478.5Z" fill="#231F20"/>
<path d="M380.5 58.8V68.6H390.3H400.1V78.4H409.9V88.2H419.7V98H429.5V88.2V78.4H419.7V68.6H409.9V58.8H400.1H390.3V49H380.5H370.6V58.8H380.5Z" fill="#231F20"/>
<path d="M140.2 49V39.2H150.1H159.9V29.4H169.7H179.5V19.6H189.3H199.1H208.9V9.8H218.7H228.5H238.3H248.1H257.9H267.7H277.5H282.4V19.6H292.2H302H311.8V29.4H321.6H331.4V39.2H341.2H351V49H360.8H370.6V39.2H360.8V29.4H351H341.2V19.6H331.4H321.6V9.8H311.8H302H292.2V0H282.4H272.6H262.8H253H243.2H233.4H223.6H213.8H208.9H199.1V9.8H189.3H179.5H169.7V19.6H159.9H150.1V29.4H140.2H130.4V39.2H120.7V49H130.4H140.2Z" fill="#231F20"/>
<path d="M71.6 88.2H81.4V78.4H91.2V68.6H101H110.8V58.8H120.7V49H110.8H101V58.8H91.2H81.4V68.6H71.6V78.4H61.8V88.2V98H71.6V88.2Z" fill="#231F20"/>
<path d="M419.7 402H409.9V411.8H400.1V421.6H390.3H380.5V431.4H370.6V441.2H380.5H390.3V431.4H400.1H409.9V421.6H419.7V411.8H429.5V402V392.2H419.7V402Z" fill="#231F20"/>
<path d="M351 441.2V451H341.2H331.4V460.8H321.6H311.8V470.6H302H292.2H282.4V480.4H277.5H267.7H257.9H248.1H238.3H228.5H218.7H208.9V470.6H199.1H189.3H179.5V460.8H169.7H159.9V451H150.1H140.2V441.2H130.4H120.7V451H130.4V460.8H140.2H150.1V470.6H159.9H169.7V480.4H179.5H189.3H199.1V490.2H208.9H213.8H223.6H233.4H243.2H253H262.8H272.6H282.4H292.2V480.4H302H311.8H321.6V470.6H331.4H341.2V460.8H351H360.8V451H370.6V441.2H360.8H351Z" fill="#231F20"/>
<path d="M61.8 372.5H52V362.7H42.2V352.9V343.1H32.4V333.3V323.5H22.6V313.7V303.9V294.1H12.8V284.3V274.5V264.7V254.9V245.1V235.3V225.5V215.7V205.9V196.1H22.6V186.3V176.5V166.7H32.4V156.9V147.1H42.2V137.2V127.5H52V117.7H61.8V107.8V98H52V107.8H42.2V117.7H32.4V127.5V137.2H22.6V147.1V156.9H12.8V166.7V176.5V186.3H3V196.1V205.9V215.7V225.5V235.3V245.1V254.9V264.7V274.5V284.3V294.1V303.9H12.8V313.7V323.5V333.3H22.6V343.1V352.9H32.4V362.7V372.5H42.2V382.4H52V392.2H61.8V382.4V372.5Z" fill="#231F20"/>
<path d="M110.8 431.4V421.6H101H91.2V411.8H81.4V402H71.6V392.2H61.8V402V411.8H71.6V421.6H81.4V431.4H91.2H101V441.2H110.8H120.7V431.4H110.8Z" fill="#231F20"/>
</g>
</g>
</g>
<path d="M363.9 254.7H354.1V264.5H363.9V254.7Z" fill="#3A2724"/>
<path d="M363.9 244.9H354.1V254.7H363.9V244.9Z" fill="#3A2724"/>
<path d="M363.9 235.1H354.1V244.9H363.9V235.1Z" fill="#3A2724"/>
<path d="M354.1 264.5H344.3V274.3H354.1V264.5Z" fill="#3A2724"/>
<path d="M354.1 225.3H344.3V235.1H354.1V225.3Z" fill="#3A2724"/>
<path d="M354.1 215.4H344.3V225.2H354.1V215.4Z" fill="#3A2724"/>
<path d="M354.1 205.7H344.3V215.5H354.1V205.7Z" fill="#3A2724"/>
<path d="M354.1 195.8H344.3V205.6H354.1V195.8Z" fill="#3A2724"/>
<path d="M354.1 186H344.3V195.8H354.1V186Z" fill="#3A2724"/>
<path d="M344.3 274.3H334.5V284.1H344.3V274.3Z" fill="#3A2724"/>
<path d="M344.3 225.3H334.5V235.1H344.3V225.3Z" fill="#3A2724"/>
<path d="M344.3 186H334.5V195.8H344.3V186Z" fill="#3A2724"/>
<path d="M344.3 176.2H334.5V186H344.3V176.2Z" fill="#3A2724"/>
<path d="M344.3 166.4H334.5V176.2H344.3V166.4Z" fill="#3A2724"/>
<path d="M344.3 156.6H334.5V166.4H344.3V156.6Z" fill="#3A2724"/>
<path d="M334.5 303.7H324.7V313.5H334.5V303.7Z" fill="#3A2724"/>
<path d="M334.5 293.9H324.7V303.7H334.5V293.9Z" fill="#3A2724"/>
<path d="M334.5 284.1H324.7V293.9H334.5V284.1Z" fill="#3A2724"/>
<path d="M334.5 274.3H324.7V284.1H334.5V274.3Z" fill="#3A2724"/>
<path d="M334.5 264.5H324.7V274.3H334.5V264.5Z" fill="#3A2724"/>
<path d="M334.5 254.7H324.7V264.5H334.5V254.7Z" fill="#3A2724"/>
<path d="M334.5 244.9H324.7V254.7H334.5V244.9Z" fill="#3A2724"/>
<path d="M334.5 235.1H324.7V244.9H334.5V235.1Z" fill="#3A2724"/>
<path d="M334.5 225.3H324.7V235.1H334.5V225.3Z" fill="#3A2724"/>
<path d="M334.5 146.8H324.7V156.6H334.5V146.8Z" fill="#3A2724"/>
<path d="M334.5 137H324.7V146.8H334.5V137Z" fill="#3A2724"/>
<path d="M334.5 127.2H324.7V137H334.5V127.2Z" fill="#3A2724"/>
<path d="M324.7 313.5H314.9V323.3H324.7V313.5Z" fill="#3A2724"/>
<path d="M324.7 303.7H314.9V313.5H324.7V303.7Z" fill="#3A2724"/>
<path d="M324.7 127.2H314.9V137H324.7V127.2Z" fill="#3A2724"/>
<path d="M314.9 323.3H305.1V333.1H314.9V323.3Z" fill="#3A2724"/>
<path d="M314.9 313.5H305.1V323.3H314.9V313.5Z" fill="#3A2724"/>
<path d="M314.9 205.7H305.1V215.5H314.9V205.7Z" fill="#593126"/>
<path d="M314.9 127.2H305.1V137H314.9V127.2Z" fill="#3A2724"/>
<path d="M314.9 117.4H305.1V127.2H314.9V117.4Z" fill="#3A2724"/>
<path d="M305.1 333.1H295.3V342.9H305.1V333.1Z" fill="#3A2724"/>
<path d="M305.1 244.9H295.3V254.7H305.1V244.9Z" fill="white"/>
<path d="M305.1 235.1H295.3V244.9H305.1V235.1Z" fill="white"/>
<path d="M305.1 225.3H295.3V235.1H305.1V225.3Z" fill="white"/>
<path d="M305.1 205.7H295.3V215.5H305.1V205.7Z" fill="#593126"/>
<path d="M305.1 117.4H295.3V127.2H305.1V117.4Z" fill="#3A2724"/>
<path d="M305.1 107.6H295.3V117.4H305.1V107.6Z" fill="#3A2724"/>
<path d="M295.3 342.9H285.5V352.7H295.3V342.9Z" fill="#3A2724"/>
<path d="M295.3 333.1H285.5V342.9H295.3V333.1Z" fill="#3A2724"/>
<path d="M295.3 244.9H285.5V254.7H295.3V244.9Z" fill="white"/>
<path d="M295.3 235.1H285.5V244.9H295.3V235.1Z" fill="#3A2724"/>
<path d="M295.3 225.3H285.5V235.1H295.3V225.3Z" fill="#3A2724"/>
<path d="M295.3 205.7H285.5V215.5H295.3V205.7Z" fill="#593126"/>
<path d="M295.3 107.6H285.5V117.4H295.3V107.6Z" fill="#3A2724"/>
<path d="M285.5 382.1H275.7V391.9H285.5V382.1Z" fill="#3A2724"/>
<path d="M285.5 372.3H275.7V382.1H285.5V372.3Z" fill="#3A2724"/>
<path d="M285.5 362.5H275.7V372.3H285.5V362.5Z" fill="#3A2724"/>
<path d="M285.5 352.7H275.7V362.5H285.5V352.7Z" fill="#3A2724"/>
<path d="M285.5 342.9H275.7V352.7H285.5V342.9Z" fill="#3A2724"/>
<path d="M285.5 244.9H275.7V254.7H285.5V244.9Z" fill="white"/>
<path d="M285.5 235.1H275.7V244.9H285.5V235.1Z" fill="#3A2724"/>
<path d="M285.5 225.3H275.7V235.1H285.5V225.3Z" fill="#3A2724"/>
<path d="M285.5 205.7H275.7V215.5H285.5V205.7Z" fill="#593126"/>
<path d="M285.5 107.6H275.7V117.4H285.5V107.6Z" fill="#3A2724"/>
<path d="M285.5 97.8H275.7V107.6H285.5V97.8Z" fill="#3A2724"/>
<path d="M275.7 352.7H265.9V362.5H275.7V352.7Z" fill="#3A2724"/>
<path d="M275.7 244.9H265.9V254.7H275.7V244.9Z" fill="white"/>
<path d="M275.7 235.1H265.9V244.9H275.7V235.1Z" fill="white"/>
<path d="M275.7 225.3H265.9V235.1H275.7V225.3Z" fill="white"/>
<path d="M275.7 97.8H265.9V107.6H275.7V97.8Z" fill="#3A2724"/>
<path d="M265.9 352.7H256.1V362.5H265.9V352.7Z" fill="#3A2724"/>
<path d="M265.9 303.7H256.1V313.5H265.9V303.7Z" fill="#C16944"/>
<path d="M265.9 97.8H256.1V107.6H265.9V97.8Z" fill="#3A2724"/>
<path d="M265.9 88H256.1V97.8H265.9V88Z" fill="#3A2724"/>
<path d="M256.1 362.5H246.3V372.3H256.1V362.5Z" fill="#3A2724"/>
<path d="M256.1 313.5H246.3V323.3H256.1V313.5Z" fill="#C16944"/>
<path d="M256.1 88H246.3V97.8H256.1V88Z" fill="#3A2724"/>
<path d="M246.2 362.5H236.4V372.3H246.2V362.5Z" fill="#3A2724"/>
<path d="M246.2 313.5H236.4V323.3H246.2V313.5Z" fill="#C16944"/>
<path d="M246.2 88H236.4V97.8H246.2V88Z" fill="#3A2724"/>
<path d="M236.5 362.5H226.7V372.3H236.5V362.5Z" fill="#3A2724"/>
<path d="M236.5 313.5H226.7V323.3H236.5V313.5Z" fill="#C16944"/>
<path d="M236.5 284.1H226.7V293.9H236.5V284.1Z" fill="#CB7869"/>
<path d="M236.5 274.3H226.7V284.1H236.5V274.3Z" fill="#CB7869"/>
<path d="M236.5 254.7H226.7V264.5H236.5V254.7Z" fill="#CB7869"/>
<path d="M236.5 88H226.7V97.8H236.5V88Z" fill="#3A2724"/>
<path d="M226.6 362.5H216.8V372.3H226.6V362.5Z" fill="#3A2724"/>
<path d="M226.6 313.5H216.8V323.3H226.6V313.5Z" fill="#C16944"/>
<path d="M226.6 274.3H216.8V284.1H226.6V274.3Z" fill="#CB7869"/>
<path d="M226.6 264.5H216.8V274.3H226.6V264.5Z" fill="#CB7869"/>
<path d="M226.6 88H216.8V97.8H226.6V88Z" fill="#3A2724"/>
<path d="M216.8 352.7H207V362.5H216.8V352.7Z" fill="#3A2724"/>
<path d="M216.8 303.7H207V313.5H216.8V303.7Z" fill="#C16944"/>
<path d="M216.8 97.8H207V107.6H216.8V97.8Z" fill="#3A2724"/>
<path d="M216.8 88H207V97.8H216.8V88Z" fill="#3A2724"/>
<path d="M207 352.7H197.2V362.5H207V352.7Z" fill="#3A2724"/>
<path d="M207 342.9H197.2V352.7H207V342.9Z" fill="#3A2724"/>
<path d="M207 244.9H197.2V254.7H207V244.9Z" fill="white"/>
<path d="M207 235.1H197.2V244.9H207V235.1Z" fill="white"/>
<path d="M207 225.3H197.2V235.1H207V225.3Z" fill="white"/>
<path d="M207 97.8H197.2V107.6H207V97.8Z" fill="#3A2724"/>
<path d="M197.2 382.1H187.4V391.9H197.2V382.1Z" fill="#3A2724"/>
<path d="M197.2 372.3H187.4V382.1H197.2V372.3Z" fill="#3A2724"/>
<path d="M197.2 362.5H187.4V372.3H197.2V362.5Z" fill="#3A2724"/>
<path d="M197.2 352.7H187.4V362.5H197.2V352.7Z" fill="#3A2724"/>
<path d="M197.2 342.9H187.4V352.7H197.2V342.9Z" fill="#3A2724"/>
<path d="M197.2 244.9H187.4V254.7H197.2V244.9Z" fill="white"/>
<path d="M197.2 235.1H187.4V244.9H197.2V235.1Z" fill="#3A2724"/>
<path d="M197.2 225.3H187.4V235.1H197.2V225.3Z" fill="#3A2724"/>
<path d="M197.2 205.7H187.4V215.5H197.2V205.7Z" fill="#593126"/>
<path d="M197.2 97.8H187.4V107.6H197.2V97.8Z" fill="#3A2724"/>
<path d="M187.4 342.9H177.6V352.7H187.4V342.9Z" fill="#3A2724"/>
<path d="M187.4 333.1H177.6V342.9H187.4V333.1Z" fill="#3A2724"/>
<path d="M187.4 244.9H177.6V254.7H187.4V244.9Z" fill="white"/>
<path d="M187.4 235.1H177.6V244.9H187.4V235.1Z" fill="#3A2724"/>
<path d="M187.4 225.3H177.6V235.1H187.4V225.3Z" fill="#3A2724"/>
<path d="M187.4 205.7H177.6V215.5H187.4V205.7Z" fill="#593126"/>
<path d="M187.4 107.6H177.6V117.4H187.4V107.6Z" fill="#3A2724"/>
<path d="M177.6 333.1H167.8V342.9H177.6V333.1Z" fill="#3A2724"/>
<path d="M177.6 323.3H167.8V333.1H177.6V323.3Z" fill="#3A2724"/>
<path d="M177.6 244.9H167.8V254.7H177.6V244.9Z" fill="white"/>
<path d="M177.6 235.1H167.8V244.9H177.6V235.1Z" fill="white"/>
<path d="M177.6 225.3H167.8V235.1H177.6V225.3Z" fill="white"/>
<path d="M177.6 205.7H167.8V215.5H177.6V205.7Z" fill="#593126"/>
<path d="M177.6 107.6H167.8V117.4H177.6V107.6Z" fill="#3A2724"/>
<path d="M167.8 323.3H158V333.1H167.8V323.3Z" fill="#3A2724"/>
<path d="M167.8 313.5H158V323.3H167.8V313.5Z" fill="#3A2724"/>
<path d="M167.8 205.7H158V215.5H167.8V205.7Z" fill="#593126"/>
<path d="M167.8 117.4H158V127.2H167.8V117.4Z" fill="#3A2724"/>
<path d="M167.8 107.6H158V117.4H167.8V107.6Z" fill="#3A2724"/>
<path d="M158 303.7H148.2V313.5H158V303.7Z" fill="#3A2724"/>
<path d="M158 127.2H148.2V137H158V127.2Z" fill="#3A2724"/>
<path d="M148.2 303.7H138.4V313.5H148.2V303.7Z" fill="#3A2724"/>
<path d="M148.2 293.9H138.4V303.7H148.2V293.9Z" fill="#3A2724"/>
<path d="M148.2 284.1H138.4V293.9H148.2V284.1Z" fill="#3A2724"/>
<path d="M148.2 274.3H138.4V284.1H148.2V274.3Z" fill="#3A2724"/>
<path d="M148.2 264.5H138.4V274.3H148.2V264.5Z" fill="#3A2724"/>
<path d="M148.2 254.7H138.4V264.5H148.2V254.7Z" fill="#3A2724"/>
<path d="M148.2 244.9H138.4V254.7H148.2V244.9Z" fill="#3A2724"/>
<path d="M148.2 235.1H138.4V244.9H148.2V235.1Z" fill="#3A2724"/>
<path d="M148.2 225.3H138.4V235.1H148.2V225.3Z" fill="#3A2724"/>
<path d="M148.2 146.8H138.4V156.6H148.2V146.8Z" fill="#3A2724"/>
<path d="M148.2 137H138.4V146.8H148.2V137Z" fill="#3A2724"/>
<path d="M138.4 274.3H128.6V284.1H138.4V274.3Z" fill="#3A2724"/>
<path d="M138.4 225.3H128.6V235.1H138.4V225.3Z" fill="#3A2724"/>
<path d="M138.4 186H128.6V195.8H138.4V186Z" fill="#3A2724"/>
<path d="M138.4 176.2H128.6V186H138.4V176.2Z" fill="#3A2724"/>
<path d="M138.4 166.4H128.6V176.2H138.4V166.4Z" fill="#3A2724"/>
<path d="M138.4 156.6H128.6V166.4H138.4V156.6Z" fill="#3A2724"/>
<path d="M138.4 146.8H128.6V156.6H138.4V146.8Z" fill="#3A2724"/>
<path d="M128.6 264.5H118.8V274.3H128.6V264.5Z" fill="#3A2724"/>
<path d="M128.6 225.3H118.8V235.1H128.6V225.3Z" fill="#3A2724"/>
<path d="M128.6 215.4H118.8V225.2H128.6V215.4Z" fill="#3A2724"/>
<path d="M128.6 205.7H118.8V215.5H128.6V205.7Z" fill="#3A2724"/>
<path d="M128.6 195.8H118.8V205.6H128.6V195.8Z" fill="#3A2724"/>
<path d="M128.6 186H118.8V195.8H128.6V186Z" fill="#3A2724"/>
<path d="M118.8 254.7H109V264.5H118.8V254.7Z" fill="#3A2724"/>
<path d="M118.8 244.9H109V254.7H118.8V244.9Z" fill="#3A2724"/>
<path d="M118.8 235.1H109V244.9H118.8V235.1Z" fill="#3A2724"/>
<path d="M344.3 235.1H334.5V244.9V254.7V264.5V274.3H344.3V264.5H354.1V254.7V244.9V235.1H344.3Z" fill="#F8AC89"/>
<path d="M344.3 225.3V215.5V205.7V195.9H334.5V186V176.2V166.4V156.6H324.7V146.8V137H314.9H305.1V127.2H295.3V117.4H285.5H275.7V107.6H265.9H256.1V97.8H246.3H236.5H226.7H216.9V107.6H207H197.2H187.4V117.4H177.6H167.8V127.2H158V137H148.2V146.8V156.6H138.4V166.4V176.2V186V195.8H128.6V205.6V215.4V225.2H138.4H148.2V235V244.8V254.6V264.4V274.2V284V293.8V303.6H158V313.4H167.8V323.2H177.6V333H187.4V342.8H197.2H207V352.6H216.8V362.4H226.6H236.4H246.2H256V352.6H265.8H275.6V342.8H285.4V333H295.2H305V323.2V313.4H314.8V303.6H324.6V293.8V284V274.2V264.4V254.6V244.8V235V225.2H334.4H344.3V225.3ZM314.9 215.4H305.1H295.3H285.5H275.7V205.6H285.5H295.3H305.1H314.9V215.4ZM305.1 235.1V244.9V254.7H295.3H285.5H275.7H265.9V244.9V235.1V225.3H275.7H285.5H295.3H305.1V235.1ZM167.8 244.9V235.1V225.3H177.6H187.4H197.2H207V235.1V244.9V254.7H197.2H187.4H177.6H167.8V244.9ZM158 205.7H167.8H177.6H187.4H197.2V215.5H187.4H177.6H167.8H158V205.7ZM265.9 313.5H256.1V323.3H246.3H236.5H226.7H216.9V313.5H207V303.7H216.8V313.5H226.6H236.4H246.2H256V303.7H265.8V313.5H265.9ZM226.6 264.5V254.7H236.4V264.5H226.6V274.3H236.4V284.1V293.9H226.6V284.1H216.8V274.3V264.5H226.6Z" fill="#F8AC89"/>
<path d="M246.3 372.3H236.5H226.6H216.8V362.5H207H197.2V372.3V382.1V391.9H207V401.7H216.8H226.6V411.5H236.5H246.3V401.7H256.1H265.9V391.9H275.7V382.1V372.3V362.5H265.9H256.1V372.3H246.3Z" fill="#F8AC89"/>
<path d="M118.8 235.1V244.9V254.7V264.5H128.6V274.3H138.4V264.5V254.7V244.9V235.1H128.6H118.8Z" fill="#F8AC89"/>
<g clip-path="url(#clip3_7_7038)">
<path d="M357.3 226.5H347.5V236.3H357.3V226.5Z" fill="#3A2724"/>
<path d="M357.3 216.7H347.5V226.5H357.3V216.7Z" fill="#3A2724"/>
<path d="M357.3 206.9H347.5V216.7H357.3V206.9Z" fill="#3A2724"/>
<path d="M357.3 197.1H347.5V206.9H357.3V197.1Z" fill="#3A2724"/>
<path d="M357.3 187.2H347.5V197H357.3V187.2Z" fill="#3A2724"/>
<path d="M347.5 226.5H337.7V236.3H347.5V226.5Z" fill="#3A2724"/>
<path d="M347.5 206.9H337.7V216.7H347.5V206.9Z" fill="#FFC979"/>
<path d="M347.5 197.1H337.7V206.9H347.5V197.1Z" fill="#FFC979"/>
<path d="M347.5 187.2H337.7V197H347.5V187.2Z" fill="#FFC979"/>
<path d="M347.5 177.4H337.7V187.2H347.5V177.4Z" fill="#3A2724"/>
<path d="M347.5 167.6H337.7V177.4H347.5V167.6Z" fill="#3A2724"/>
<path d="M347.5 157.8H337.7V167.6H347.5V157.8Z" fill="#3A2724"/>
<path d="M337.7 226.5H327.9V236.3H337.7V226.5Z" fill="#3A2724"/>
<path d="M337.7 177.4H327.9V187.2H337.7V177.4Z" fill="#FFC979"/>
<path d="M337.7 167.6H327.9V177.4H337.7V167.6Z" fill="#FFC979"/>
<path d="M337.7 157.8H327.9V167.6H337.7V157.8Z" fill="#FFC979"/>
<path d="M337.7 148H327.9V157.8H337.7V148Z" fill="#3A2724"/>
<path d="M337.7 138.2H327.9V148H337.7V138.2Z" fill="#3A2724"/>
<path d="M337.7 128.4H327.9V138.2H337.7V128.4Z" fill="#3A2724"/>
<path d="M327.9 157.8H318.1V167.6H327.9V157.8Z" fill="#FFC979"/>
<path d="M327.9 138.2H318.1V148H327.9V138.2Z" fill="#FFC979"/>
<path d="M327.9 128.4H318.1V138.2H327.9V128.4Z" fill="#3A2724"/>
<path d="M318.1 138.2H308.3V148H318.1V138.2Z" fill="#3A2724"/>
<path d="M318.1 128.4H308.3V138.2H318.1V128.4Z" fill="#FFC979"/>
<path d="M318.1 118.6H308.3V128.4H318.1V118.6Z" fill="#3A2724"/>
<path d="M318.1 108.8H308.3V118.6H318.1V108.8Z" fill="#3A2724"/>
<path d="M308.3 128.4H298.5V138.2H308.3V128.4Z" fill="#FFC979"/>
<path d="M308.3 118.6H298.5V128.4H308.3V118.6Z" fill="#FFC979"/>
<path d="M308.3 108.8H298.5V118.6H308.3V108.8Z" fill="#3A2724"/>
<path d="M308.3 99H298.5V108.8H308.3V99Z" fill="#3A2724"/>
<path d="M308.3 89.2H298.5V99H308.3V89.2Z" fill="#3A2724"/>
<path d="M298.5 128.4H288.7V138.2H298.5V128.4Z" fill="#3A2724"/>
<path d="M298.5 118.6H288.7V128.4H298.5V118.6Z" fill="#FFC979"/>
<path d="M298.5 108.8H288.7V118.6H298.5V108.8Z" fill="#FFC979"/>
<path d="M298.5 99H288.7V108.8H298.5V99Z" fill="#FFC979"/>
<path d="M298.5 89.2H288.7V99H298.5V89.2Z" fill="#3A2724"/>
<path d="M288.7 128.4H278.9V138.2H288.7V128.4Z" fill="#3A2724"/>
<path d="M288.7 118.6H278.9V128.4H288.7V118.6Z" fill="#FFC979"/>
<path d="M288.7 108.8H278.9V118.6H288.7V108.8Z" fill="#FFC979"/>
<path d="M288.7 99H278.9V108.8H288.7V99Z" fill="#FFC979"/>
<path d="M288.7 89.2H278.9V99H288.7V89.2Z" fill="#3A2724"/>
<path d="M278.9 128.4H269.1V138.2H278.9V128.4Z" fill="#3A2724"/>
<path d="M278.9 118.6H269.1V128.4H278.9V118.6Z" fill="#FFC979"/>
<path d="M278.9 108.8H269.1V118.6H278.9V108.8Z" fill="#FFC979"/>
<path d="M278.9 99H269.1V108.8H278.9V99Z" fill="#FFC979"/>
<path d="M278.9 89.2H269.1V99H278.9V89.2Z" fill="#3A2724"/>
<path d="M278.9 79.4H269.1V89.2H278.9V79.4Z" fill="#3A2724"/>
<path d="M269 138.2H259.2V148H269V138.2Z" fill="#3A2724"/>
<path d="M269 128.4H259.2V138.2H269V128.4Z" fill="#FFC979"/>
<path d="M269 118.6H259.2V128.4H269V118.6Z" fill="#FFC979"/>
<path d="M269 108.8H259.2V118.6H269V108.8Z" fill="#FFC979"/>
<path d="M269 99H259.2V108.8H269V99Z" fill="#FFC979"/>
<path d="M269 89.2H259.2V99H269V89.2Z" fill="#FFC979"/>
<path d="M269 79.4H259.2V89.2H269V79.4Z" fill="#3A2724"/>
<path d="M259.2 138.2H249.4V148H259.2V138.2Z" fill="#3A2724"/>
<path d="M259.2 128.4H249.4V138.2H259.2V128.4Z" fill="#FFC979"/>
<path d="M259.2 118.6H249.4V128.4H259.2V118.6Z" fill="#FFC979"/>
<path d="M259.2 108.8H249.4V118.6H259.2V108.8Z" fill="#FFC979"/>
<path d="M259.2 99H249.4V108.8H259.2V99Z" fill="#FFC979"/>
<path d="M259.2 89.2H249.4V99H259.2V89.2Z" fill="#FFC979"/>
<path d="M259.2 79.4H249.4V89.2H259.2V79.4Z" fill="#3A2724"/>
<path d="M249.4 138.2H239.6V148H249.4V138.2Z" fill="#3A2724"/>
<path d="M249.4 128.4H239.6V138.2H249.4V128.4Z" fill="#FFC979"/>
<path d="M249.4 118.6H239.6V128.4H249.4V118.6Z" fill="#FFC979"/>
<path d="M249.4 108.8H239.6V118.6H249.4V108.8Z" fill="#FFC979"/>
<path d="M249.4 99H239.6V108.8H249.4V99Z" fill="#FFC979"/>
<path d="M249.4 89.2H239.6V99H249.4V89.2Z" fill="#FFC979"/>
<path d="M249.4 79.4H239.6V89.2H249.4V79.4Z" fill="#FFC979"/>
<path d="M249.4 69.6H239.6V79.4H249.4V69.6Z" fill="#3A2724"/>
<path d="M239.6 138.2H229.8V148H239.6V138.2Z" fill="#3A2724"/>
<path d="M239.6 128.4H229.8V138.2H239.6V128.4Z" fill="#FFC979"/>
<path d="M239.6 118.6H229.8V128.4H239.6V118.6Z" fill="#FFC979"/>
<path d="M239.6 108.8H229.8V118.6H239.6V108.8Z" fill="#FFC979"/>
<path d="M239.6 99H229.8V108.8H239.6V99Z" fill="#FFC979"/>
<path d="M239.6 89.2H229.8V99H239.6V89.2Z" fill="#FFC979"/>
<path d="M239.6 79.4H229.8V89.2H239.6V79.4Z" fill="#FFC979"/>
<path d="M239.6 69.6H229.8V79.4H239.6V69.6Z" fill="#FFC979"/>
<path d="M239.6 59.8H229.8V69.6H239.6V59.8Z" fill="#3A2724"/>
<path d="M229.8 138.2H220V148H229.8V138.2Z" fill="#3A2724"/>
<path d="M229.8 128.4H220V138.2H229.8V128.4Z" fill="#FFC979"/>
<path d="M229.8 118.6H220V128.4H229.8V118.6Z" fill="#FFC979"/>
<path d="M229.8 108.8H220V118.6H229.8V108.8Z" fill="#FFC979"/>
<path d="M229.8 99H220V108.8H229.8V99Z" fill="#FFC979"/>
<path d="M229.8 89.2H220V99H229.8V89.2Z" fill="#FFC979"/>
<path d="M229.8 79.4H220V89.2H229.8V79.4Z" fill="#FFC979"/>
<path d="M229.8 69.6H220V79.4H229.8V69.6Z" fill="#3A2724"/>
<path d="M229.8 59.8H220V69.6H229.8V59.8Z" fill="#3A2724"/>
<path d="M220 138.2H210.2V148H220V138.2Z" fill="#3A2724"/>
<path d="M220 128.4H210.2V138.2H220V128.4Z" fill="#FFC979"/>
<path d="M220 118.6H210.2V128.4H220V118.6Z" fill="#FFC979"/>
<path d="M220 108.8H210.2V118.6H220V108.8Z" fill="#FFC979"/>
<path d="M220 99H210.2V108.8H220V99Z" fill="#FFC979"/>
<path d="M220 89.2H210.2V99H220V89.2Z" fill="#FFC979"/>
<path d="M220 79.4H210.2V89.2H220V79.4Z" fill="#FFC979"/>
<path d="M220 69.6H210.2V79.4H220V69.6Z" fill="#3A2724"/>
<path d="M210.2 128.4H200.4V138.2H210.2V128.4Z" fill="#3A2724"/>
<path d="M210.2 118.6H200.4V128.4H210.2V118.6Z" fill="#FFC979"/>
<path d="M210.2 108.8H200.4V118.6H210.2V108.8Z" fill="#FFC979"/>
<path d="M210.2 99H200.4V108.8H210.2V99Z" fill="#FFC979"/>
<path d="M210.2 89.2H200.4V99H210.2V89.2Z" fill="#FFC979"/>
<path d="M210.2 79.4H200.4V89.2H210.2V79.4Z" fill="#FFC979"/>
<path d="M210.2 69.6H200.4V79.4H210.2V69.6Z" fill="#3A2724"/>
<path d="M210.2 59.8H200.4V69.6H210.2V59.8Z" fill="#3A2724"/>
<path d="M200.4 128.4H190.6V138.2H200.4V128.4Z" fill="#3A2724"/>
<path d="M200.4 118.6H190.6V128.4H200.4V118.6Z" fill="#FFC979"/>
<path d="M200.4 108.8H190.6V118.6H200.4V108.8Z" fill="#FFC979"/>
<path d="M200.4 99H190.6V108.8H200.4V99Z" fill="#FFC979"/>
<path d="M200.4 89.2H190.6V99H200.4V89.2Z" fill="#FFC979"/>
<path d="M200.4 79.4H190.6V89.2H200.4V79.4Z" fill="#FFC979"/>
<path d="M200.4 69.6H190.6V79.4H200.4V69.6Z" fill="#FFC979"/>
<path d="M200.4 59.8H190.6V69.6H200.4V59.8Z" fill="#3A2724"/>
<path d="M190.6 128.4H180.8V138.2H190.6V128.4Z" fill="#3A2724"/>
<path d="M190.6 118.6H180.8V128.4H190.6V118.6Z" fill="#FFC979"/>
<path d="M190.6 108.8H180.8V118.6H190.6V108.8Z" fill="#FFC979"/>
<path d="M190.6 99H180.8V108.8H190.6V99Z" fill="#FFC979"/>
<path d="M190.6 89.2H180.8V99H190.6V89.2Z" fill="#FFC979"/>
<path d="M190.6 79.4H180.8V89.2H190.6V79.4Z" fill="#FFC979"/>
<path d="M190.6 69.6H180.8V79.4H190.6V69.6Z" fill="#FFC979"/>
<path d="M190.6 59.8H180.8V69.6H190.6V59.8Z" fill="#3A2724"/>
<path d="M190.6 50H180.8V59.8H190.6V50Z" fill="#3A2724"/>
<path d="M180.8 128.4H171V138.2H180.8V128.4Z" fill="#3A2724"/>
<path d="M180.8 118.6H171V128.4H180.8V118.6Z" fill="#FFC979"/>
<path d="M180.8 108.8H171V118.6H180.8V108.8Z" fill="#FFC979"/>
<path d="M180.8 99H171V108.8H180.8V99Z" fill="#FFC979"/>
<path d="M180.8 89.2H171V99H180.8V89.2Z" fill="#FFC979"/>
<path d="M180.8 79.4H171V89.2H180.8V79.4Z" fill="#3A2724"/>
<path d="M180.8 69.6H171V79.4H180.8V69.6Z" fill="#3A2724"/>
<path d="M180.8 59.8H171V69.6H180.8V59.8Z" fill="#3A2724"/>
<path d="M171 148H161.2V157.8H171V148Z" fill="#3A2724"/>
<path d="M171 138.2H161.2V148H171V138.2Z" fill="#3A2724"/>
<path d="M171 128.4H161.2V138.2H171V128.4Z" fill="#FFC979"/>
<path d="M171 118.6H161.2V128.4H171V118.6Z" fill="#FFC979"/>
<path d="M171 108.8H161.2V118.6H171V108.8Z" fill="#FFC979"/>
<path d="M171 99H161.2V108.8H171V99Z" fill="#FFC979"/>
<path d="M171 89.2H161.2V99H171V89.2Z" fill="#3A2724"/>
<path d="M171 79.4H161.2V89.2H171V79.4Z" fill="#3A2724"/>
<path d="M161.2 148H151.4V157.8H161.2V148Z" fill="#FFC979"/>
<path d="M161.2 138.2H151.4V148H161.2V138.2Z" fill="#FFC979"/>
<path d="M161.2 128.4H151.4V138.2H161.2V128.4Z" fill="#FFC979"/>
<path d="M161.2 118.6H151.4V128.4H161.2V118.6Z" fill="#FFC979"/>
<path d="M161.2 108.8H151.4V118.6H161.2V108.8Z" fill="#3A2724"/>
<path d="M161.2 99H151.4V108.8H161.2V99Z" fill="#3A2724"/>
<path d="M161.2 89.2H151.4V99H161.2V89.2Z" fill="#3A2724"/>
<path d="M151.4 226.5H141.6V236.3H151.4V226.5Z" fill="#3A2724"/>
<path d="M151.4 177.4H141.6V187.2H151.4V177.4Z" fill="#FFC979"/>
<path d="M151.4 167.6H141.6V177.4H151.4V167.6Z" fill="#FFC979"/>
<path d="M151.4 157.8H141.6V167.6H151.4V157.8Z" fill="#FFC979"/>
<path d="M151.4 148H141.6V157.8H151.4V148Z" fill="#FFC979"/>
<path d="M151.4 138.2H141.6V148H151.4V138.2Z" fill="#3A2724"/>
<path d="M151.4 128.4H141.6V138.2H151.4V128.4Z" fill="#FFC979"/>
<path d="M151.4 118.6H141.6V128.4H151.4V118.6Z" fill="#3A2724"/>
<path d="M141.6 226.5H131.8V236.3H141.6V226.5Z" fill="#3A2724"/>
<path d="M141.6 216.7H131.8V226.5H141.6V216.7Z" fill="#FFC979"/>
<path d="M141.6 206.9H131.8V216.7H141.6V206.9Z" fill="#FFC979"/>
<path d="M141.6 197.1H131.8V206.9H141.6V197.1Z" fill="#FFC979"/>
<path d="M141.6 187.2H131.8V197H141.6V187.2Z" fill="#FFC979"/>
<path d="M141.6 177.4H131.8V187.2H141.6V177.4Z" fill="#3A2724"/>
<path d="M141.6 167.6H131.8V177.4H141.6V167.6Z" fill="#3A2724"/>
<path d="M141.6 157.8H131.8V167.6H141.6V157.8Z" fill="#3A2724"/>
<path d="M141.6 148H131.8V157.8H141.6V148Z" fill="#3A2724"/>
<path d="M131.8 226.5H122V236.3H131.8V226.5Z" fill="#3A2724"/>
<path d="M131.8 216.7H122V226.5H131.8V216.7Z" fill="#3A2724"/>
<path d="M131.8 206.9H122V216.7H131.8V206.9Z" fill="#3A2724"/>
<path d="M131.8 197.1H122V206.9H131.8V197.1Z" fill="#3A2724"/>
<path d="M131.8 187.2H122V197H131.8V187.2Z" fill="#3A2724"/>
</g>
<g clip-path="url(#clip4_7_7038)">
<path d="M333.7 441V431.2H323.9V421.4H314.1V411.6H304.3H294.5V401.8H284.7H274.9V411.6H265.1H255.2V421.4H245.5H235.6H225.8V411.6H216H206.2H196.4V401.8H186.6H176.8H167H157.2V411.6H147.4V421.4H137.6H127.8V431.2H118V441H127.8V450.8H137.6H147.4H157.2V460.6H167V470.4H176.8H186.6H196.4V480.2H206.2H216H225.8H235.6H245.5H255.2H265.1H274.9H284.7V470.4H294.5H304.3H314.1V460.6H323.9H333.7V450.8H343.5V441H333.7Z" fill="#8A64DA"/>
<path d="M343.5 431.2H333.7V441H343.5V450.8H353.3V441V431.2H343.5Z" fill="#3A2724"/>
<path d="M333.7 411.6H323.9H314.1V421.4H323.9V431.2H333.7V421.4V411.6Z" fill="#3A2724"/>
<path d="M304.3 401.8H294.5V411.6H304.3H314.1V401.8H304.3Z" fill="#3A2724"/>
<path d="M284.7 392H274.9H265.1V401.8H255.2H245.5V411.6H235.6H225.8V421.4H235.6H245.5H255.2V411.6H265.1H274.9V401.8H284.7H294.5V392H284.7Z" fill="#3A2724"/>
<path d="M216 401.8H206.2V392H196.4H186.6H176.8H167H157.2V401.8H167H176.8H186.6H196.4V411.6H206.2H216H225.8V401.8H216Z" fill="#3A2724"/>
<path d="M157.2 401.8H147.4V411.6H157.2V401.8Z" fill="#3A2724"/>
<path d="M127.8 411.6V421.4H137.6H147.4V411.6H137.6H127.8Z" fill="#3A2724"/>
<path d="M127.8 421.4H118V431.2H127.8V421.4Z" fill="#3A2724"/>
</g>
<defs>
<clipPath id="clip0_7_7038">
<rect width="485.3" height="490.2" fill="white"/>
</clipPath>
<clipPath id="clip1_7_7038">
<rect width="485.3" height="490.2" fill="white"/>
</clipPath>
<clipPath id="clip2_7_7038">
<rect width="485.3" height="490.2" fill="white" transform="translate(3)"/>
</clipPath>
<clipPath id="clip3_7_7038">
<rect width="235.3" height="186.3" fill="white" transform="translate(122 50)"/>
</clipPath>
<clipPath id="clip4_7_7038">
<rect width="235.3" height="88.2" fill="white" transform="translate(118 392)"/>
</clipPath>
</defs>
</svg>
