<svg width="486" height="491" viewBox="0 0 486 491" fill="none" xmlns="http://www.w3.org/2000/svg">
<g clip-path="url(#clip0_7_7893)">
<g clip-path="url(#clip1_7_7893)">
<g clip-path="url(#clip2_7_7893)">
<path d="M470.2 318C480 293.9 486.3 268.2 488.3 241.5C486.5 189.7 464 141.2 429.5 101.6V98H426.3C424.9 96.5 423.6 95 422.2 93.6V80.6H419.4H412.8V74H406.4V65.9H392C385.1 60.4 378 55.3 370.7 50.4V49.5H369.3C352.4 38.4 334.3 29.1 315.6 21.7V17.9H305.4C299 15.7 292.6 13.7 286.1 11.9V5.39999H254C251.1 4.99999 248.3 4.59999 245.4 4.29999C243.5 4.59999 241.6 4.99999 239.7 5.39999H231.6V6.99999C228.3 7.69999 225 8.39999 221.8 9.19999H205.7V13.5C203.9 14 202.1 14.6 200.3 15.1H174.4V24.1C170.1 25.8 165.9 27.5 161.8 29.3H159.8V30.2C147 35.8 135 42.1 123.5 49H120.6V50.8C111.8 56.3 103.3 62.2 95.3 68.4H90.4V68.9H88.3V74.1C86.7 75.5 85.1 76.8 83.5 78.2H78.2V83C73 87.9 68 92.9 63.3 98.1H60V101.9C37.4 128.1 21.6 158.8 15 193.2H9.59998V297H14.7C19.4 317.7 28.2 338.4 40.4 358V364.9H44.8C50 372.7 55.6 380.3 61.7 387.6V392.2H63.7V403.8H76.3C77 404.5 77.7 405.2 78.4 405.9V414.9H87.7C88.8 415.9 90 417 91.1 418V425H99.2C141.1 459.9 193.4 483.7 245.7 485.8C299.2 482.7 351 460 393 424.3H405.4V415.4H414.8V403.7C415.1 403.4 415.3 403.2 415.6 402.9H421.1V396.9C422.2 395.6 423.3 394.4 424.4 393.1H429.5V386.9C435.5 379.5 441.1 371.8 446.3 363.8H451.1V356C457.3 345.7 462.9 335.1 467.7 324H470.2V318Z" fill="#FFE296"/>
<path d="M478.5 186.3V176.5V166.7V156.9H468.7V147.1V137.2H458.9V127.5V117.7H449.1V107.8H439.3V98H429.5V107.8V117.7H439.3V127.5H449.1V137.2V147.1H458.9V156.9V166.7H468.7V176.5V186.3V196.1H478.5V205.9V215.7V225.5V235.3V245.1V254.9V264.7V274.5V284.3V294.1H468.7V303.9V313.7V323.5H458.9V333.3V343.1H449.1V352.9V362.7H439.3V372.5H429.5V382.4V392.2H439.3V382.4H449.1V372.5H458.9V362.7V352.9H468.7V343.1V333.3H478.5V323.5V313.7V303.9H488.3V294.1V284.3V274.5V264.7V254.9V245.1V235.3V225.5V215.7V205.9V196.1V186.3H478.5Z" fill="#231F20"/>
<path d="M380.5 58.8V68.6H390.3H400.1V78.4H409.9V88.2H419.7V98H429.5V88.2V78.4H419.7V68.6H409.9V58.8H400.1H390.3V49H380.5H370.6V58.8H380.5Z" fill="#231F20"/>
<path d="M140.2 49V39.2H150.1H159.9V29.4H169.7H179.5V19.6H189.3H199.1H208.9V9.8H218.7H228.5H238.3H248.1H257.9H267.7H277.5H282.4V19.6H292.2H302H311.8V29.4H321.6H331.4V39.2H341.2H351V49H360.8H370.6V39.2H360.8V29.4H351H341.2V19.6H331.4H321.6V9.8H311.8H302H292.2V0H282.4H272.6H262.8H253H243.2H233.4H223.6H213.8H208.9H199.1V9.8H189.3H179.5H169.7V19.6H159.9H150.1V29.4H140.2H130.4V39.2H120.7V49H130.4H140.2Z" fill="#231F20"/>
<path d="M71.6 88.2H81.4001V78.4H91.2V68.6H101H110.8V58.8H120.7V49H110.8H101V58.8H91.2H81.4001V68.6H71.6V78.4H61.8V88.2V98H71.6V88.2Z" fill="#231F20"/>
<path d="M419.7 402H409.9V411.8H400.1V421.6H390.3H380.5V431.4H370.6V441.2H380.5H390.3V431.4H400.1H409.9V421.6H419.7V411.8H429.5V402V392.2H419.7V402Z" fill="#231F20"/>
<path d="M351 441.2V451H341.2H331.4V460.8H321.6H311.8V470.6H302H292.2H282.4V480.4H277.5H267.7H257.9H248.1H238.3H228.5H218.7H208.9V470.6H199.1H189.3H179.5V460.8H169.7H159.9V451H150.1H140.2V441.2H130.4H120.7V451H130.4V460.8H140.2H150.1V470.6H159.9H169.7V480.4H179.5H189.3H199.1V490.2H208.9H213.8H223.6H233.4H243.2H253H262.8H272.6H282.4H292.2V480.4H302H311.8H321.6V470.6H331.4H341.2V460.8H351H360.8V451H370.6V441.2H360.8H351Z" fill="#231F20"/>
<path d="M61.8 372.5H52V362.7H42.2V352.9V343.1H32.4V333.3V323.5H22.6V313.7V303.9V294.1H12.8V284.3V274.5V264.7V254.9V245.1V235.3V225.5V215.7V205.9V196.1H22.6V186.3V176.5V166.7H32.4V156.9V147.1H42.2V137.2V127.5H52V117.7H61.8V107.8V98H52V107.8H42.2V117.7H32.4V127.5V137.2H22.6V147.1V156.9H12.8V166.7V176.5V186.3H3V196.1V205.9V215.7V225.5V235.3V245.1V254.9V264.7V274.5V284.3V294.1V303.9H12.8V313.7V323.5V333.3H22.6V343.1V352.9H32.4V362.7V372.5H42.2V382.4H52V392.2H61.8V382.4V372.5Z" fill="#231F20"/>
<path d="M110.8 431.4V421.6H101H91.2V411.8H81.4001V402H71.6V392.2H61.8V402V411.8H71.6V421.6H81.4001V431.4H91.2H101V441.2H110.8H120.7V431.4H110.8Z" fill="#231F20"/>
</g>
</g>
</g>
<path d="M363.9 254.7H354.1V264.5H363.9V254.7Z" fill="#3A2724"/>
<path d="M363.9 244.9H354.1V254.7H363.9V244.9Z" fill="#3A2724"/>
<path d="M363.9 235.1H354.1V244.9H363.9V235.1Z" fill="#3A2724"/>
<path d="M354.1 264.5H344.3V274.3H354.1V264.5Z" fill="#3A2724"/>
<path d="M354.1 225.3H344.3V235.1H354.1V225.3Z" fill="#3A2724"/>
<path d="M354.1 215.4H344.3V225.2H354.1V215.4Z" fill="#3A2724"/>
<path d="M354.1 205.7H344.3V215.5H354.1V205.7Z" fill="#3A2724"/>
<path d="M354.1 195.8H344.3V205.6H354.1V195.8Z" fill="#3A2724"/>
<path d="M354.1 186H344.3V195.8H354.1V186Z" fill="#3A2724"/>
<path d="M344.3 274.3H334.5V284.1H344.3V274.3Z" fill="#3A2724"/>
<path d="M344.3 225.3H334.5V235.1H344.3V225.3Z" fill="#3A2724"/>
<path d="M344.3 186H334.5V195.8H344.3V186Z" fill="#3A2724"/>
<path d="M344.3 176.2H334.5V186H344.3V176.2Z" fill="#3A2724"/>
<path d="M344.3 166.4H334.5V176.2H344.3V166.4Z" fill="#3A2724"/>
<path d="M344.3 156.6H334.5V166.4H344.3V156.6Z" fill="#3A2724"/>
<path d="M334.5 303.7H324.7V313.5H334.5V303.7Z" fill="#3A2724"/>
<path d="M334.5 293.9H324.7V303.7H334.5V293.9Z" fill="#3A2724"/>
<path d="M334.5 284.1H324.7V293.9H334.5V284.1Z" fill="#3A2724"/>
<path d="M334.5 274.3H324.7V284.1H334.5V274.3Z" fill="#3A2724"/>
<path d="M334.5 264.5H324.7V274.3H334.5V264.5Z" fill="#3A2724"/>
<path d="M334.5 254.7H324.7V264.5H334.5V254.7Z" fill="#3A2724"/>
<path d="M334.5 244.9H324.7V254.7H334.5V244.9Z" fill="#3A2724"/>
<path d="M334.5 235.1H324.7V244.9H334.5V235.1Z" fill="#3A2724"/>
<path d="M334.5 225.3H324.7V235.1H334.5V225.3Z" fill="#3A2724"/>
<path d="M334.5 146.8H324.7V156.6H334.5V146.8Z" fill="#3A2724"/>
<path d="M334.5 137H324.7V146.8H334.5V137Z" fill="#3A2724"/>
<path d="M334.5 127.2H324.7V137H334.5V127.2Z" fill="#3A2724"/>
<path d="M324.7 313.5H314.9V323.3H324.7V313.5Z" fill="#3A2724"/>
<path d="M324.7 303.7H314.9V313.5H324.7V303.7Z" fill="#3A2724"/>
<path d="M324.7 127.2H314.9V137H324.7V127.2Z" fill="#3A2724"/>
<path d="M314.9 323.3H305.1V333.1H314.9V323.3Z" fill="#3A2724"/>
<path d="M314.9 313.5H305.1V323.3H314.9V313.5Z" fill="#3A2724"/>
<path d="M314.9 205.7H305.1V215.5H314.9V205.7Z" fill="#593126"/>
<path d="M314.9 127.2H305.1V137H314.9V127.2Z" fill="#3A2724"/>
<path d="M314.9 117.4H305.1V127.2H314.9V117.4Z" fill="#3A2724"/>
<path d="M305.1 333.1H295.3V342.9H305.1V333.1Z" fill="#3A2724"/>
<path d="M305.1 244.9H295.3V254.7H305.1V244.9Z" fill="white"/>
<path d="M305.1 235.1H295.3V244.9H305.1V235.1Z" fill="white"/>
<path d="M305.1 225.3H295.3V235.1H305.1V225.3Z" fill="white"/>
<path d="M305.1 205.7H295.3V215.5H305.1V205.7Z" fill="#593126"/>
<path d="M305.1 117.4H295.3V127.2H305.1V117.4Z" fill="#3A2724"/>
<path d="M305.1 107.6H295.3V117.4H305.1V107.6Z" fill="#3A2724"/>
<path d="M295.3 342.9H285.5V352.7H295.3V342.9Z" fill="#3A2724"/>
<path d="M295.3 333.1H285.5V342.9H295.3V333.1Z" fill="#3A2724"/>
<path d="M295.3 244.9H285.5V254.7H295.3V244.9Z" fill="white"/>
<path d="M295.3 235.1H285.5V244.9H295.3V235.1Z" fill="#3A2724"/>
<path d="M295.3 225.3H285.5V235.1H295.3V225.3Z" fill="#3A2724"/>
<path d="M295.3 205.7H285.5V215.5H295.3V205.7Z" fill="#593126"/>
<path d="M295.3 107.6H285.5V117.4H295.3V107.6Z" fill="#3A2724"/>
<path d="M285.5 382.1H275.7V391.9H285.5V382.1Z" fill="#3A2724"/>
<path d="M285.5 372.3H275.7V382.1H285.5V372.3Z" fill="#3A2724"/>
<path d="M285.5 362.5H275.7V372.3H285.5V362.5Z" fill="#3A2724"/>
<path d="M285.5 352.7H275.7V362.5H285.5V352.7Z" fill="#3A2724"/>
<path d="M285.5 342.9H275.7V352.7H285.5V342.9Z" fill="#3A2724"/>
<path d="M285.5 244.9H275.7V254.7H285.5V244.9Z" fill="white"/>
<path d="M285.5 235.1H275.7V244.9H285.5V235.1Z" fill="#3A2724"/>
<path d="M285.5 225.3H275.7V235.1H285.5V225.3Z" fill="#3A2724"/>
<path d="M285.5 205.7H275.7V215.5H285.5V205.7Z" fill="#593126"/>
<path d="M285.5 107.6H275.7V117.4H285.5V107.6Z" fill="#3A2724"/>
<path d="M285.5 97.8H275.7V107.6H285.5V97.8Z" fill="#3A2724"/>
<path d="M275.7 352.7H265.9V362.5H275.7V352.7Z" fill="#3A2724"/>
<path d="M275.7 244.9H265.9V254.7H275.7V244.9Z" fill="white"/>
<path d="M275.7 235.1H265.9V244.9H275.7V235.1Z" fill="white"/>
<path d="M275.7 225.3H265.9V235.1H275.7V225.3Z" fill="white"/>
<path d="M275.7 97.8H265.9V107.6H275.7V97.8Z" fill="#3A2724"/>
<path d="M265.9 352.7H256.1V362.5H265.9V352.7Z" fill="#3A2724"/>
<path d="M265.9 303.7H256.1V313.5H265.9V303.7Z" fill="#C16944"/>
<path d="M265.9 97.8H256.1V107.6H265.9V97.8Z" fill="#3A2724"/>
<path d="M265.9 88H256.1V97.8H265.9V88Z" fill="#3A2724"/>
<path d="M256.1 362.5H246.3V372.3H256.1V362.5Z" fill="#3A2724"/>
<path d="M256.1 313.5H246.3V323.3H256.1V313.5Z" fill="#C16944"/>
<path d="M256.1 88H246.3V97.8H256.1V88Z" fill="#3A2724"/>
<path d="M246.2 362.5H236.4V372.3H246.2V362.5Z" fill="#3A2724"/>
<path d="M246.2 313.5H236.4V323.3H246.2V313.5Z" fill="#C16944"/>
<path d="M246.2 88H236.4V97.8H246.2V88Z" fill="#3A2724"/>
<path d="M236.5 362.5H226.7V372.3H236.5V362.5Z" fill="#3A2724"/>
<path d="M236.5 313.5H226.7V323.3H236.5V313.5Z" fill="#C16944"/>
<path d="M236.5 284.1H226.7V293.9H236.5V284.1Z" fill="#CB7869"/>
<path d="M236.5 274.3H226.7V284.1H236.5V274.3Z" fill="#CB7869"/>
<path d="M236.5 254.7H226.7V264.5H236.5V254.7Z" fill="#CB7869"/>
<path d="M236.5 88H226.7V97.8H236.5V88Z" fill="#3A2724"/>
<path d="M226.6 362.5H216.8V372.3H226.6V362.5Z" fill="#3A2724"/>
<path d="M226.6 313.5H216.8V323.3H226.6V313.5Z" fill="#C16944"/>
<path d="M226.6 274.3H216.8V284.1H226.6V274.3Z" fill="#CB7869"/>
<path d="M226.6 264.5H216.8V274.3H226.6V264.5Z" fill="#CB7869"/>
<path d="M226.6 88H216.8V97.8H226.6V88Z" fill="#3A2724"/>
<path d="M216.8 352.7H207V362.5H216.8V352.7Z" fill="#3A2724"/>
<path d="M216.8 303.7H207V313.5H216.8V303.7Z" fill="#C16944"/>
<path d="M216.8 97.8H207V107.6H216.8V97.8Z" fill="#3A2724"/>
<path d="M216.8 88H207V97.8H216.8V88Z" fill="#3A2724"/>
<path d="M207 352.7H197.2V362.5H207V352.7Z" fill="#3A2724"/>
<path d="M207 342.9H197.2V352.7H207V342.9Z" fill="#3A2724"/>
<path d="M207 244.9H197.2V254.7H207V244.9Z" fill="white"/>
<path d="M207 235.1H197.2V244.9H207V235.1Z" fill="white"/>
<path d="M207 225.3H197.2V235.1H207V225.3Z" fill="white"/>
<path d="M207 97.8H197.2V107.6H207V97.8Z" fill="#3A2724"/>
<path d="M197.2 382.1H187.4V391.9H197.2V382.1Z" fill="#3A2724"/>
<path d="M197.2 372.3H187.4V382.1H197.2V372.3Z" fill="#3A2724"/>
<path d="M197.2 362.5H187.4V372.3H197.2V362.5Z" fill="#3A2724"/>
<path d="M197.2 352.7H187.4V362.5H197.2V352.7Z" fill="#3A2724"/>
<path d="M197.2 342.9H187.4V352.7H197.2V342.9Z" fill="#3A2724"/>
<path d="M197.2 244.9H187.4V254.7H197.2V244.9Z" fill="white"/>
<path d="M197.2 235.1H187.4V244.9H197.2V235.1Z" fill="#3A2724"/>
<path d="M197.2 225.3H187.4V235.1H197.2V225.3Z" fill="#3A2724"/>
<path d="M197.2 205.7H187.4V215.5H197.2V205.7Z" fill="#593126"/>
<path d="M197.2 97.8H187.4V107.6H197.2V97.8Z" fill="#3A2724"/>
<path d="M187.4 342.9H177.6V352.7H187.4V342.9Z" fill="#3A2724"/>
<path d="M187.4 333.1H177.6V342.9H187.4V333.1Z" fill="#3A2724"/>
<path d="M187.4 244.9H177.6V254.7H187.4V244.9Z" fill="white"/>
<path d="M187.4 235.1H177.6V244.9H187.4V235.1Z" fill="#3A2724"/>
<path d="M187.4 225.3H177.6V235.1H187.4V225.3Z" fill="#3A2724"/>
<path d="M187.4 205.7H177.6V215.5H187.4V205.7Z" fill="#593126"/>
<path d="M187.4 107.6H177.6V117.4H187.4V107.6Z" fill="#3A2724"/>
<path d="M177.6 333.1H167.8V342.9H177.6V333.1Z" fill="#3A2724"/>
<path d="M177.6 323.3H167.8V333.1H177.6V323.3Z" fill="#3A2724"/>
<path d="M177.6 244.9H167.8V254.7H177.6V244.9Z" fill="white"/>
<path d="M177.6 235.1H167.8V244.9H177.6V235.1Z" fill="white"/>
<path d="M177.6 225.3H167.8V235.1H177.6V225.3Z" fill="white"/>
<path d="M177.6 205.7H167.8V215.5H177.6V205.7Z" fill="#593126"/>
<path d="M177.6 107.6H167.8V117.4H177.6V107.6Z" fill="#3A2724"/>
<path d="M167.8 323.3H158V333.1H167.8V323.3Z" fill="#3A2724"/>
<path d="M167.8 313.5H158V323.3H167.8V313.5Z" fill="#3A2724"/>
<path d="M167.8 205.7H158V215.5H167.8V205.7Z" fill="#593126"/>
<path d="M167.8 117.4H158V127.2H167.8V117.4Z" fill="#3A2724"/>
<path d="M167.8 107.6H158V117.4H167.8V107.6Z" fill="#3A2724"/>
<path d="M158 303.7H148.2V313.5H158V303.7Z" fill="#3A2724"/>
<path d="M158 127.2H148.2V137H158V127.2Z" fill="#3A2724"/>
<path d="M148.2 303.7H138.4V313.5H148.2V303.7Z" fill="#3A2724"/>
<path d="M148.2 293.9H138.4V303.7H148.2V293.9Z" fill="#3A2724"/>
<path d="M148.2 284.1H138.4V293.9H148.2V284.1Z" fill="#3A2724"/>
<path d="M148.2 274.3H138.4V284.1H148.2V274.3Z" fill="#3A2724"/>
<path d="M148.2 264.5H138.4V274.3H148.2V264.5Z" fill="#3A2724"/>
<path d="M148.2 254.7H138.4V264.5H148.2V254.7Z" fill="#3A2724"/>
<path d="M148.2 244.9H138.4V254.7H148.2V244.9Z" fill="#3A2724"/>
<path d="M148.2 235.1H138.4V244.9H148.2V235.1Z" fill="#3A2724"/>
<path d="M148.2 225.3H138.4V235.1H148.2V225.3Z" fill="#3A2724"/>
<path d="M148.2 146.8H138.4V156.6H148.2V146.8Z" fill="#3A2724"/>
<path d="M148.2 137H138.4V146.8H148.2V137Z" fill="#3A2724"/>
<path d="M138.4 274.3H128.6V284.1H138.4V274.3Z" fill="#3A2724"/>
<path d="M138.4 225.3H128.6V235.1H138.4V225.3Z" fill="#3A2724"/>
<path d="M138.4 186H128.6V195.8H138.4V186Z" fill="#3A2724"/>
<path d="M138.4 176.2H128.6V186H138.4V176.2Z" fill="#3A2724"/>
<path d="M138.4 166.4H128.6V176.2H138.4V166.4Z" fill="#3A2724"/>
<path d="M138.4 156.6H128.6V166.4H138.4V156.6Z" fill="#3A2724"/>
<path d="M138.4 146.8H128.6V156.6H138.4V146.8Z" fill="#3A2724"/>
<path d="M128.6 264.5H118.8V274.3H128.6V264.5Z" fill="#3A2724"/>
<path d="M128.6 225.3H118.8V235.1H128.6V225.3Z" fill="#3A2724"/>
<path d="M128.6 215.4H118.8V225.2H128.6V215.4Z" fill="#3A2724"/>
<path d="M128.6 205.7H118.8V215.5H128.6V205.7Z" fill="#3A2724"/>
<path d="M128.6 195.8H118.8V205.6H128.6V195.8Z" fill="#3A2724"/>
<path d="M128.6 186H118.8V195.8H128.6V186Z" fill="#3A2724"/>
<path d="M118.8 254.7H109V264.5H118.8V254.7Z" fill="#3A2724"/>
<path d="M118.8 244.9H109V254.7H118.8V244.9Z" fill="#3A2724"/>
<path d="M118.8 235.1H109V244.9H118.8V235.1Z" fill="#3A2724"/>
<path d="M344.3 235.1H334.5V244.9V254.7V264.5V274.3H344.3V264.5H354.1V254.7V244.9V235.1H344.3Z" fill="#F8AC89"/>
<path d="M344.3 225.3V215.5V205.7V195.9H334.5V186V176.2V166.4V156.6H324.7V146.8V137H314.9H305.1V127.2H295.3V117.4H285.5H275.7V107.6H265.9H256.1V97.8H246.3H236.5H226.7H216.9V107.6H207H197.2H187.4V117.4H177.6H167.8V127.2H158V137H148.2V146.8V156.6H138.4V166.4V176.2V186V195.8H128.6V205.6V215.4V225.2H138.4H148.2V235V244.8V254.6V264.4V274.2V284V293.8V303.6H158V313.4H167.8V323.2H177.6V333H187.4V342.8H197.2H207V352.6H216.8V362.4H226.6H236.4H246.2H256V352.6H265.8H275.6V342.8H285.4V333H295.2H305V323.2V313.4H314.8V303.6H324.6V293.8V284V274.2V264.4V254.6V244.8V235V225.2H334.4H344.3V225.3ZM314.9 215.4H305.1H295.3H285.5H275.7V205.6H285.5H295.3H305.1H314.9V215.4ZM305.1 235.1V244.9V254.7H295.3H285.5H275.7H265.9V244.9V235.1V225.3H275.7H285.5H295.3H305.1V235.1ZM167.8 244.9V235.1V225.3H177.6H187.4H197.2H207V235.1V244.9V254.7H197.2H187.4H177.6H167.8V244.9ZM158 205.7H167.8H177.6H187.4H197.2V215.5H187.4H177.6H167.8H158V205.7ZM265.9 313.5H256.1V323.3H246.3H236.5H226.7H216.9V313.5H207V303.7H216.8V313.5H226.6H236.4H246.2H256V303.7H265.8V313.5H265.9ZM226.6 264.5V254.7H236.4V264.5H226.6V274.3H236.4V284.1V293.9H226.6V284.1H216.8V274.3V264.5H226.6Z" fill="#F8AC89"/>
<path d="M246.3 372.3H236.5H226.6H216.8V362.5H207H197.2V372.3V382.1V391.9H207V401.7H216.8H226.6V411.5H236.5H246.3V401.7H256.1H265.9V391.9H275.7V382.1V372.3V362.5H265.9H256.1V372.3H246.3Z" fill="#F8AC89"/>
<path d="M118.8 235.1V244.9V254.7V264.5H128.6V274.3H138.4V264.5V254.7V244.9V235.1H128.6H118.8Z" fill="#F8AC89"/>
<path d="M364.7 450.5H354.9V460.3H364.7V450.5Z" fill="#3A2724"/>
<path d="M364.7 440.7H354.9V450.5H364.7V440.7Z" fill="#3A2724"/>
<path d="M364.7 430.9H354.9V440.7H364.7V430.9Z" fill="#3A2724"/>
<path d="M364.7 421.1H354.9V430.9H364.7V421.1Z" fill="#3A2724"/>
<path d="M364.7 411.3H354.9V421.1H364.7V411.3Z" fill="#3A2724"/>
<path d="M364.7 401.5H354.9V411.3H364.7V401.5Z" fill="#3A2724"/>
<path d="M364.7 391.7H354.9V401.5H364.7V391.7Z" fill="#3A2724"/>
<path d="M364.7 381.9H354.9V391.7H364.7V381.9Z" fill="#3A2724"/>
<path d="M364.7 372.1H354.9V381.9H364.7V372.1Z" fill="#3A2724"/>
<path d="M364.7 362.3H354.9V372.1H364.7V362.3Z" fill="#3A2724"/>
<path d="M364.7 352.5H354.9V362.3H364.7V352.5Z" fill="#3A2724"/>
<path d="M364.7 342.7H354.9V352.5H364.7V342.7Z" fill="#3A2724"/>
<path d="M364.7 332.9H354.9V342.7H364.7V332.9Z" fill="#3A2724"/>
<path d="M364.7 323.1H354.9V332.9H364.7V323.1Z" fill="#3A2724"/>
<path d="M364.7 313.3H354.9V323.1H364.7V313.3Z" fill="#3A2724"/>
<path d="M364.7 303.5H354.9V313.3H364.7V303.5Z" fill="#3A2724"/>
<path d="M364.7 293.7H354.9V303.5H364.7V293.7Z" fill="#3A2724"/>
<path d="M364.7 283.9H354.9V293.7H364.7V283.9Z" fill="#3A2724"/>
<path d="M364.7 274.1H354.9V283.9H364.7V274.1Z" fill="#3A2724"/>
<path d="M364.7 264.3H354.9V274.1H364.7V264.3Z" fill="#3A2724"/>
<path d="M364.7 254.5H354.9V264.3H364.7V254.5Z" fill="#3A2724"/>
<path d="M364.7 244.7H354.9V254.5H364.7V244.7Z" fill="#3A2724"/>
<path d="M364.7 234.9H354.9V244.7H364.7V234.9Z" fill="#3A2724"/>
<path d="M364.7 225.1H354.9V234.9H364.7V225.1Z" fill="#3A2724"/>
<path d="M364.7 215.2H354.9V225H364.7V215.2Z" fill="#3A2724"/>
<path d="M364.7 205.4H354.9V215.2H364.7V205.4Z" fill="#3A2724"/>
<path d="M364.7 195.7H354.9V205.5H364.7V195.7Z" fill="#3A2724"/>
<path d="M354.9 440.7H345.1V450.5H354.9V440.7Z" fill="#3A2724"/>
<path d="M354.9 430.9H345.1V440.7H354.9V430.9Z" fill="#3A2724"/>
<path d="M354.9 264.3H345.1V274.1H354.9V264.3Z" fill="#3A2724"/>
<path d="M354.9 225.1H345.1V234.9H354.9V225.1Z" fill="#3A2724"/>
<path d="M354.9 185.8H345.1V195.6H354.9V185.8Z" fill="#3A2724"/>
<path d="M354.9 176H345.1V185.8H354.9V176Z" fill="#3A2724"/>
<path d="M354.9 166.2H345.1V176H354.9V166.2Z" fill="#3A2724"/>
<path d="M354.9 156.4H345.1V166.2H354.9V156.4Z" fill="#3A2724"/>
<path d="M354.9 146.6H345.1V156.4H354.9V146.6Z" fill="#3A2724"/>
<path d="M345.1 430.9H335.3V440.7H345.1V430.9Z" fill="#3A2724"/>
<path d="M345.1 274.1H335.3V283.9H345.1V274.1Z" fill="#3A2724"/>
<path d="M345.1 225.1H335.3V234.9H345.1V225.1Z" fill="#3A2724"/>
<path d="M345.1 146.6H335.3V156.4H345.1V146.6Z" fill="#3A2724"/>
<path d="M345.1 136.8H335.3V146.6H345.1V136.8Z" fill="#3A2724"/>
<path d="M345.1 127H335.3V136.8H345.1V127Z" fill="#3A2724"/>
<path d="M335.3 421.1H325.5V430.9H335.3V421.1Z" fill="#3A2724"/>
<path d="M335.3 411.3H325.5V421.1H335.3V411.3Z" fill="#3A2724"/>
<path d="M335.3 293.7H325.5V303.5H335.3V293.7Z" fill="#3A2724"/>
<path d="M335.3 283.9H325.5V293.7H335.3V283.9Z" fill="#3A2724"/>
<path d="M335.3 274.1H325.5V283.9H335.3V274.1Z" fill="#3A2724"/>
<path d="M335.3 205.4H325.5V215.2H335.3V205.4Z" fill="#3A2724"/>
<path d="M335.3 195.7H325.5V205.5H335.3V195.7Z" fill="#3A2724"/>
<path d="M335.3 185.8H325.5V195.6H335.3V185.8Z" fill="#3A2724"/>
<path d="M335.3 127H325.5V136.8H335.3V127Z" fill="#3A2724"/>
<path d="M335.3 117.2H325.5V127H335.3V117.2Z" fill="#3A2724"/>
<path d="M335.3 107.4H325.5V117.2H335.3V107.4Z" fill="#3A2724"/>
<path d="M325.5 411.3H315.7V421.1H325.5V411.3Z" fill="#3A2724"/>
<path d="M325.5 313.3H315.7V323.1H325.5V313.3Z" fill="#3A2724"/>
<path d="M325.5 303.5H315.7V313.3H325.5V303.5Z" fill="#3A2724"/>
<path d="M325.5 185.8H315.7V195.6H325.5V185.8Z" fill="#3A2724"/>
<path d="M325.5 176H315.7V185.8H325.5V176Z" fill="#3A2724"/>
<path d="M325.5 166.2H315.7V176H325.5V166.2Z" fill="#3A2724"/>
<path d="M325.5 107.4H315.7V117.2H325.5V107.4Z" fill="#3A2724"/>
<path d="M325.5 97.6H315.7V107.4H325.5V97.6Z" fill="#3A2724"/>
<path d="M325.5 87.8H315.7V97.6H325.5V87.8Z" fill="#3A2724"/>
<path d="M315.7 401.5H305.9V411.3H315.7V401.5Z" fill="#3A2724"/>
<path d="M315.7 313.3H305.9V323.1H315.7V313.3Z" fill="#3A2724"/>
<path d="M315.7 166.2H305.9V176H315.7V166.2Z" fill="#3A2724"/>
<path d="M315.7 156.4H305.9V166.2H315.7V156.4Z" fill="#3A2724"/>
<path d="M315.7 87.8H305.9V97.6H315.7V87.8Z" fill="#3A2724"/>
<path d="M305.9 401.5H296.1V411.3H305.9V401.5Z" fill="#3A2724"/>
<path d="M305.9 146.6H296.1V156.4H305.9V146.6Z" fill="#3A2724"/>
<path d="M305.9 136.8H296.1V146.6H305.9V136.8Z" fill="#3A2724"/>
<path d="M305.9 127H296.1V136.8H305.9V127Z" fill="#3A2724"/>
<path d="M305.9 87.8H296.1V97.6H305.9V87.8Z" fill="#3A2724"/>
<path d="M296.1 391.7H286.3V401.5H296.1V391.7Z" fill="#3A2724"/>
<path d="M296.1 332.9H286.3V342.7H296.1V332.9Z" fill="#3A2724"/>
<path d="M296.1 117.2H286.3V127H296.1V117.2Z" fill="#3A2724"/>
<path d="M296.1 87.8H286.3V97.6H296.1V87.8Z" fill="#3A2724"/>
<path d="M286.3 391.7H276.5V401.5H286.3V391.7Z" fill="#3A2724"/>
<path d="M286.3 381.9H276.5V391.7H286.3V381.9Z" fill="#3A2724"/>
<path d="M286.3 372.1H276.5V381.9H286.3V372.1Z" fill="#3A2724"/>
<path d="M286.3 362.3H276.5V372.1H286.3V362.3Z" fill="#3A2724"/>
<path d="M286.3 352.5H276.5V362.3H286.3V352.5Z" fill="#3A2724"/>
<path d="M286.3 342.7H276.5V352.5H286.3V342.7Z" fill="#3A2724"/>
<path d="M286.3 127H276.5V136.8H286.3V127Z" fill="#3A2724"/>
<path d="M286.3 117.2H276.5V127H286.3V117.2Z" fill="#3A2724"/>
<path d="M286.3 87.8H276.5V97.6H286.3V87.8Z" fill="#3A2724"/>
<path d="M286.3 78H276.5V87.8H286.3V78Z" fill="#3A2724"/>
<path d="M276.5 401.5H266.7V411.3H276.5V401.5Z" fill="#3A2724"/>
<path d="M276.5 391.7H266.7V401.5H276.5V391.7Z" fill="#3A2724"/>
<path d="M276.5 136.8H266.7V146.6H276.5V136.8Z" fill="#3A2724"/>
<path d="M276.5 127H266.7V136.8H276.5V127Z" fill="#3A2724"/>
<path d="M276.5 78H266.7V87.8H276.5V78Z" fill="#3A2724"/>
<path d="M266.7 401.5H256.9V411.3H266.7V401.5Z" fill="#3A2724"/>
<path d="M266.7 146.6H256.9V156.4H266.7V146.6Z" fill="#3A2724"/>
<path d="M266.7 136.8H256.9V146.6H266.7V136.8Z" fill="#3A2724"/>
<path d="M266.7 78H256.9V87.8H266.7V78Z" fill="#3A2724"/>
<path d="M256.9 401.5H247.1V411.3H256.9V401.5Z" fill="#3A2724"/>
<path d="M256.9 146.6H247.1V156.4H256.9V146.6Z" fill="#3A2724"/>
<path d="M256.9 78H247.1V87.8H256.9V78Z" fill="#3A2724"/>
<path d="M247 156.4H237.2V166.2H247V156.4Z" fill="#3A2724"/>
<path d="M247 146.6H237.2V156.4H247V146.6Z" fill="#3A2724"/>
<path d="M247 78H237.2V87.8H247V78Z" fill="#3A2724"/>
<path d="M237.2 156.4H227.4V166.2H237.2V156.4Z" fill="#3A2724"/>
<path d="M237.2 78H227.4V87.8H237.2V78Z" fill="#3A2724"/>
<path d="M227.5 166.2H217.7V176H227.5V166.2Z" fill="#3A2724"/>
<path d="M227.5 78H217.7V87.8H227.5V78Z" fill="#3A2724"/>
<path d="M217.6 166.2H207.8V176H217.6V166.2Z" fill="#3A2724"/>
<path d="M217.6 78H207.8V87.8H217.6V78Z" fill="#3A2724"/>
<path d="M207.8 176H198V185.8H207.8V176Z" fill="#3A2724"/>
<path d="M207.8 78H198V87.8H207.8V78Z" fill="#3A2724"/>
<path d="M198 391.7H188.2V401.5H198V391.7Z" fill="#3A2724"/>
<path d="M198 381.9H188.2V391.7H198V381.9Z" fill="#3A2724"/>
<path d="M198 372.1H188.2V381.9H198V372.1Z" fill="#3A2724"/>
<path d="M198 362.3H188.2V372.1H198V362.3Z" fill="#3A2724"/>
<path d="M198 352.5H188.2V362.3H198V352.5Z" fill="#3A2724"/>
<path d="M198 342.7H188.2V352.5H198V342.7Z" fill="#3A2724"/>
<path d="M198 176H188.2V185.8H198V176Z" fill="#3A2724"/>
<path d="M198 78H188.2V87.8H198V78Z" fill="#3A2724"/>
<path d="M188.2 391.7H178.4V401.5H188.2V391.7Z" fill="#3A2724"/>
<path d="M188.2 342.7H178.4V352.5H188.2V342.7Z" fill="#3A2724"/>
<path d="M188.2 332.9H178.4V342.7H188.2V332.9Z" fill="#3A2724"/>
<path d="M188.2 185.8H178.4V195.6H188.2V185.8Z" fill="#3A2724"/>
<path d="M188.2 176H178.4V185.8H188.2V176Z" fill="#3A2724"/>
<path d="M188.2 87.8H178.4V97.6H188.2V87.8Z" fill="#3A2724"/>
<path d="M178.4 391.7H168.6V401.5H178.4V391.7Z" fill="#3A2724"/>
<path d="M178.4 323.1H168.6V332.9H178.4V323.1Z" fill="#3A2724"/>
<path d="M178.4 185.8H168.6V195.6H178.4V185.8Z" fill="#3A2724"/>
<path d="M178.4 97.6H168.6V107.4H178.4V97.6Z" fill="#3A2724"/>
<path d="M178.4 87.8H168.6V97.6H178.4V87.8Z" fill="#3A2724"/>
<path d="M168.6 391.7H158.8V401.5H168.6V391.7Z" fill="#3A2724"/>
<path d="M168.6 313.3H158.8V323.1H168.6V313.3Z" fill="#3A2724"/>
<path d="M168.6 195.7H158.8V205.5H168.6V195.7Z" fill="#3A2724"/>
<path d="M168.6 185.8H158.8V195.6H168.6V185.8Z" fill="#3A2724"/>
<path d="M168.6 107.4H158.8V117.2H168.6V107.4Z" fill="#3A2724"/>
<path d="M168.6 97.6H158.8V107.4H168.6V97.6Z" fill="#3A2724"/>
<path d="M158.8 401.5H149V411.3H158.8V401.5Z" fill="#3A2724"/>
<path d="M158.8 303.5H149V313.3H158.8V303.5Z" fill="#3A2724"/>
<path d="M158.8 195.7H149V205.5H158.8V195.7Z" fill="#3A2724"/>
<path d="M158.8 117.2H149V127H158.8V117.2Z" fill="#3A2724"/>
<path d="M158.8 107.4H149V117.2H158.8V107.4Z" fill="#3A2724"/>
<path d="M149 411.3H139.2V421.1H149V411.3Z" fill="#3A2724"/>
<path d="M149 303.5H139.2V313.3H149V303.5Z" fill="#3A2724"/>
<path d="M149 293.7H139.2V303.5H149V293.7Z" fill="#3A2724"/>
<path d="M149 283.9H139.2V293.7H149V283.9Z" fill="#3A2724"/>
<path d="M149 205.4H139.2V215.2H149V205.4Z" fill="#3A2724"/>
<path d="M149 195.7H139.2V205.5H149V195.7Z" fill="#3A2724"/>
<path d="M149 127H139.2V136.8H149V127Z" fill="#3A2724"/>
<path d="M149 117.2H139.2V127H149V117.2Z" fill="#3A2724"/>
<path d="M139.2 411.3H129.4V421.1H139.2V411.3Z" fill="#3A2724"/>
<path d="M139.2 274.1H129.4V283.9H139.2V274.1Z" fill="#3A2724"/>
<path d="M139.2 225.1H129.4V234.9H139.2V225.1Z" fill="#3A2724"/>
<path d="M139.2 215.2H129.4V225H139.2V215.2Z" fill="#3A2724"/>
<path d="M139.2 205.4H129.4V215.2H139.2V205.4Z" fill="#3A2724"/>
<path d="M139.2 146.6H129.4V156.4H139.2V146.6Z" fill="#3A2724"/>
<path d="M139.2 136.8H129.4V146.6H139.2V136.8Z" fill="#3A2724"/>
<path d="M139.2 127H129.4V136.8H139.2V127Z" fill="#3A2724"/>
<path d="M129.4 421.1H119.6V430.9H129.4V421.1Z" fill="#3A2724"/>
<path d="M129.4 264.3H119.6V274.1H129.4V264.3Z" fill="#3A2724"/>
<path d="M129.4 225.1H119.6V234.9H129.4V225.1Z" fill="#3A2724"/>
<path d="M129.4 215.2H119.6V225H129.4V215.2Z" fill="#3A2724"/>
<path d="M129.4 156.4H119.6V166.2H129.4V156.4Z" fill="#3A2724"/>
<path d="M129.4 146.6H119.6V156.4H129.4V146.6Z" fill="#3A2724"/>
<path d="M119.6 430.9H109.8V440.7H119.6V430.9Z" fill="#3A2724"/>
<path d="M119.6 421.1H109.8V430.9H119.6V421.1Z" fill="#3A2724"/>
<path d="M119.6 254.5H109.8V264.3H119.6V254.5Z" fill="#3A2724"/>
<path d="M119.6 244.7H109.8V254.5H119.6V244.7Z" fill="#3A2724"/>
<path d="M119.6 234.9H109.8V244.7H119.6V234.9Z" fill="#3A2724"/>
<path d="M119.6 225.1H109.8V234.9H119.6V225.1Z" fill="#3A2724"/>
<path d="M345.1 283.9H335.3V293.7V303.5H325.5V313.3V323.1H315.7H305.9V332.9H296.1V342.7H286.3V352.5V362.3V372.1V381.9V391.7H296.1V401.5H305.9H315.7V411.3H325.5H335.3V421.1V430.9H345.1H354.9V421.1V411.3V401.5V391.7V381.9V372.1V362.3V352.5V342.7V332.9V323.1V313.3V303.5V293.7V283.9V274.1H345.1V283.9Z" fill="#DC5F43"/>
<path d="M345.1 195.6V185.8V176V166.2V156.4H335.3V146.6V136.8H325.5V127V117.2H315.7V107.4V97.6H305.9H296.1H286.3H276.5V87.8H266.7H256.9H247.1H237.3H227.4H217.6H207.8H198H188.2V97.6H178.4V107.4H168.6V117.2H158.8V127H149V136.8H139.2V146.6V156.4H129.4V166.2H119.6V176V185.8V195.6H109.8V205.5V215.2V225.1H119.6V215.2H129.4V205.5H139.2V195.6H149H158.8V185.8H168.6H178.4V176H188.2H198H207.8V166.2H217.6H227.4V156.4H237.3V146.6H247.1H256.9V136.8H266.7V127H276.5V117.2H286.3H296.1V127H305.9V136.8V146.6V156.4H315.7V166.2H325.5V176V185.8H335.3V195.6V205.5V215.2V225.1H345.1H354.9V215.2V205.5V195.6H345.1Z" fill="#DC5F43"/>
<path d="M178.4 342.7V332.9H168.6V323.1H158.8V313.3H149H139.2V303.5V293.7V283.9H129.4V274.1H119.6V264.3H109.8V274.1V283.9V293.7V303.5V313.3V323.1V332.9V342.7V352.5V362.3V372.1V381.9V391.7V401.5V411.3V421.1H119.6H129.4V411.3H139.2H149V401.5H158.8V391.7H168.6H178.4H188.2V381.9V372.1V362.3V352.5H178.4V342.7Z" fill="#DC5F43"/>
<path d="M119.6 185.8H109.8V195.6H119.6V185.8Z" fill="#3A2724"/>
<path d="M119.6 176H109.8V185.8H119.6V176Z" fill="#3A2724"/>
<path d="M119.6 166.2H109.8V176H119.6V166.2Z" fill="#3A2724"/>
<path d="M119.6 156.4H109.8V166.2H119.6V156.4Z" fill="#3A2724"/>
<path d="M109.8 430.9H100V440.7H109.8V430.9Z" fill="#3A2724"/>
<path d="M109.8 421.1H100V430.9H109.8V421.1Z" fill="#3A2724"/>
<path d="M109.8 411.3H100V421.1H109.8V411.3Z" fill="#3A2724"/>
<path d="M109.8 401.5H100V411.3H109.8V401.5Z" fill="#3A2724"/>
<path d="M109.8 391.7H100V401.5H109.8V391.7Z" fill="#3A2724"/>
<path d="M109.8 381.9H100V391.7H109.8V381.9Z" fill="#3A2724"/>
<path d="M109.8 372.1H100V381.9H109.8V372.1Z" fill="#3A2724"/>
<path d="M109.8 362.3H100V372.1H109.8V362.3Z" fill="#3A2724"/>
<path d="M109.8 352.5H100V362.3H109.8V352.5Z" fill="#3A2724"/>
<path d="M109.8 342.7H100V352.5H109.8V342.7Z" fill="#3A2724"/>
<path d="M109.8 332.9H100V342.7H109.8V332.9Z" fill="#3A2724"/>
<path d="M109.8 323.1H100V332.9H109.8V323.1Z" fill="#3A2724"/>
<path d="M109.8 313.3H100V323.1H109.8V313.3Z" fill="#3A2724"/>
<path d="M109.8 303.5H100V313.3H109.8V303.5Z" fill="#3A2724"/>
<path d="M109.8 293.7H100V303.5H109.8V293.7Z" fill="#3A2724"/>
<path d="M109.8 283.9H100V293.7H109.8V283.9Z" fill="#3A2724"/>
<path d="M109.8 274.1H100V283.9H109.8V274.1Z" fill="#3A2724"/>
<path d="M109.8 264.3H100V274.1H109.8V264.3Z" fill="#3A2724"/>
<path d="M109.8 254.5H100V264.3H109.8V254.5Z" fill="#3A2724"/>
<path d="M109.8 244.7H100V254.5H109.8V244.7Z" fill="#3A2724"/>
<path d="M109.8 234.9H100V244.7H109.8V234.9Z" fill="#3A2724"/>
<path d="M109.8 225.1H100V234.9H109.8V225.1Z" fill="#3A2724"/>
<path d="M109.8 215.2H100V225H109.8V215.2Z" fill="#3A2724"/>
<path d="M109.8 205.4H100V215.2H109.8V205.4Z" fill="#3A2724"/>
<path d="M109.8 195.7H100V205.5H109.8V195.7Z" fill="#3A2724"/>
<path d="M109.8 185.8H100V195.6H109.8V185.8Z" fill="#3A2724"/>
<path d="M345.1 215.3H335.3V225.1H345.1V215.3Z" fill="#3A2724"/>
<g clip-path="url(#clip3_7_7893)">
<path d="M333.7 441V431.2H323.9V421.4H314.1V411.6H304.3H294.5V401.8H284.7H274.9V411.6H265.1H255.2V421.4H245.5H235.6H225.8V411.6H216H206.2H196.4V401.8H186.6H176.8H167H157.2V411.6H147.4V421.4H137.6H127.8V431.2H118V441H127.8V450.8H137.6H147.4H157.2V460.6H167V470.4H176.8H186.6H196.4V480.2H206.2H216H225.8H235.6H245.5H255.2H265.1H274.9H284.7V470.4H294.5H304.3H314.1V460.6H323.9H333.7V450.8H343.5V441H333.7Z" fill="#3AAA6D"/>
<path d="M343.5 431.2H333.7V441H343.5V450.8H353.3V441V431.2H343.5Z" fill="#3A2724"/>
<path d="M333.7 411.6H323.9H314.1V421.4H323.9V431.2H333.7V421.4V411.6Z" fill="#3A2724"/>
<path d="M304.3 401.8H294.5V411.6H304.3H314.1V401.8H304.3Z" fill="#3A2724"/>
<path d="M284.7 392H274.9H265.1V401.8H255.2H245.5V411.6H235.6H225.8V421.4H235.6H245.5H255.2V411.6H265.1H274.9V401.8H284.7H294.5V392H284.7Z" fill="#3A2724"/>
<path d="M216 401.8H206.2V392H196.4H186.6H176.8H167H157.2V401.8H167H176.8H186.6H196.4V411.6H206.2H216H225.8V401.8H216Z" fill="#3A2724"/>
<path d="M157.2 401.8H147.4V411.6H157.2V401.8Z" fill="#3A2724"/>
<path d="M127.8 411.6V421.4H137.6H147.4V411.6H137.6H127.8Z" fill="#3A2724"/>
<path d="M127.8 421.4H118V431.2H127.8V421.4Z" fill="#3A2724"/>
</g>
<defs>
<clipPath id="clip0_7_7893">
<rect width="485.3" height="490.2" fill="white"/>
</clipPath>
<clipPath id="clip1_7_7893">
<rect width="485.3" height="490.2" fill="white"/>
</clipPath>
<clipPath id="clip2_7_7893">
<rect width="485.3" height="490.2" fill="white" transform="translate(3)"/>
</clipPath>
<clipPath id="clip3_7_7893">
<rect width="235.3" height="88.2" fill="white" transform="translate(118 392)"/>
</clipPath>
</defs>
</svg>
